<svg width="25" height="25" viewBox="0 0 25 25" fill="none" xmlns="http://www.w3.org/2000/svg">
<path d="M21.6354 7.31559L17.4457 3.12684C17.3064 2.98751 17.141 2.87699 16.959 2.80159C16.777 2.72619 16.5819 2.68738 16.3849 2.68738C16.1879 2.68738 15.9928 2.72619 15.8108 2.80159C15.6288 2.87699 15.4634 2.98751 15.3241 3.12684L3.76379 14.6872C3.6239 14.8259 3.51299 14.9911 3.4375 15.1732C3.36202 15.3552 3.32347 15.5504 3.3241 15.7475V19.9372C3.3241 20.335 3.48214 20.7165 3.76344 20.9978C4.04475 21.2791 4.42628 21.4372 4.8241 21.4372H20.5741C20.773 21.4372 20.9638 21.3581 21.1044 21.2175C21.2451 21.0768 21.3241 20.8861 21.3241 20.6872C21.3241 20.4882 21.2451 20.2975 21.1044 20.1568C20.9638 20.0162 20.773 19.9372 20.5741 19.9372H11.1354L21.6354 9.43715C21.7747 9.29786 21.8852 9.13249 21.9606 8.95047C22.036 8.76846 22.0748 8.57338 22.0748 8.37637C22.0748 8.17936 22.036 7.98428 21.9606 7.80227C21.8852 7.62026 21.7747 7.45488 21.6354 7.31559ZM9.01379 19.9372H4.8241V15.7475L13.0741 7.49746L17.2638 11.6872L9.01379 19.9372ZM18.3241 10.6268L14.1354 6.43715L16.3854 4.18715L20.5741 8.37684L18.3241 10.6268Z" fill="white"/>
</svg>
