<svg width="25" height="25" viewBox="0 0 25 25" fill="none" xmlns="http://www.w3.org/2000/svg">
<path d="M21.9185 12.7319C21.9185 12.9308 21.8394 13.1216 21.6988 13.2623C21.5581 13.4029 21.3674 13.4819 21.1685 13.4819H13.6685V20.9819C13.6685 21.1808 13.5894 21.3716 13.4488 21.5123C13.3081 21.6529 13.1174 21.7319 12.9185 21.7319C12.7195 21.7319 12.5288 21.6529 12.3881 21.5123C12.2475 21.3716 12.1685 21.1808 12.1685 20.9819V13.4819H4.66846C4.46954 13.4819 4.27878 13.4029 4.13813 13.2623C3.99747 13.1216 3.91846 12.9308 3.91846 12.7319C3.91846 12.533 3.99747 12.3423 4.13813 12.2016C4.27878 12.061 4.46954 11.9819 4.66846 11.9819H12.1685V4.48193C12.1685 4.28302 12.2475 4.09226 12.3881 3.9516C12.5288 3.81095 12.7195 3.73193 12.9185 3.73193C13.1174 3.73193 13.3081 3.81095 13.4488 3.9516C13.5894 4.09226 13.6685 4.28302 13.6685 4.48193V11.9819H21.1685C21.3674 11.9819 21.5581 12.061 21.6988 12.2016C21.8394 12.3423 21.9185 12.533 21.9185 12.7319Z" fill="white"/>
</svg>
