<svg width="25" height="25" viewBox="0 0 25 25" fill="none" xmlns="http://www.w3.org/2000/svg">
<path d="M20.3945 4.9646H16.6445V4.2146C16.6445 3.61786 16.4075 3.04557 15.9855 2.62361C15.5636 2.20165 14.9913 1.9646 14.3945 1.9646H9.89453C9.29779 1.9646 8.7255 2.20165 8.30354 2.62361C7.88158 3.04557 7.64453 3.61786 7.64453 4.2146V4.9646H3.89453C3.69562 4.9646 3.50485 5.04362 3.3642 5.18427C3.22355 5.32492 3.14453 5.51569 3.14453 5.7146C3.14453 5.91351 3.22355 6.10428 3.3642 6.24493C3.50485 6.38558 3.69562 6.4646 3.89453 6.4646H4.64453V19.9646C4.64453 20.3624 4.80257 20.744 5.08387 21.0253C5.36518 21.3066 5.74671 21.4646 6.14453 21.4646H18.1445C18.5424 21.4646 18.9239 21.3066 19.2052 21.0253C19.4865 20.744 19.6445 20.3624 19.6445 19.9646V6.4646H20.3945C20.5934 6.4646 20.7842 6.38558 20.9249 6.24493C21.0655 6.10428 21.1445 5.91351 21.1445 5.7146C21.1445 5.51569 21.0655 5.32492 20.9249 5.18427C20.7842 5.04362 20.5934 4.9646 20.3945 4.9646ZM9.14453 4.2146C9.14453 4.01569 9.22355 3.82492 9.3642 3.68427C9.50485 3.54362 9.69562 3.4646 9.89453 3.4646H14.3945C14.5934 3.4646 14.7842 3.54362 14.9249 3.68427C15.0655 3.82492 15.1445 4.01569 15.1445 4.2146V4.9646H9.14453V4.2146ZM18.1445 19.9646H6.14453V6.4646H18.1445V19.9646ZM10.6445 10.2146V16.2146C10.6445 16.4135 10.5655 16.6043 10.4249 16.7449C10.2842 16.8856 10.0934 16.9646 9.89453 16.9646C9.69562 16.9646 9.50485 16.8856 9.3642 16.7449C9.22355 16.6043 9.14453 16.4135 9.14453 16.2146V10.2146C9.14453 10.0157 9.22355 9.82492 9.3642 9.68427C9.50485 9.54362 9.69562 9.4646 9.89453 9.4646C10.0934 9.4646 10.2842 9.54362 10.4249 9.68427C10.5655 9.82492 10.6445 10.0157 10.6445 10.2146ZM15.1445 10.2146V16.2146C15.1445 16.4135 15.0655 16.6043 14.9249 16.7449C14.7842 16.8856 14.5934 16.9646 14.3945 16.9646C14.1956 16.9646 14.0049 16.8856 13.8642 16.7449C13.7235 16.6043 13.6445 16.4135 13.6445 16.2146V10.2146C13.6445 10.0157 13.7235 9.82492 13.8642 9.68427C14.0049 9.54362 14.1956 9.4646 14.3945 9.4646C14.5934 9.4646 14.7842 9.54362 14.9249 9.68427C15.0655 9.82492 15.1445 10.0157 15.1445 10.2146Z" fill="#1B1D1E"/>
</svg>
